<?xml version="1.0" standalone="no"?><svg xmlns="http://www.w3.org/2000/svg" viewBox="0 0 1440 320"><path fill="#FBE6E5" fill-opacity="1" d="M0,224L40,208C80,192,160,160,240,170.7C320,181,400,235,480,250.7C560,267,640,245,720,240C800,235,880,245,960,240C1040,235,1120,213,1200,202.7C1280,192,1360,192,1400,192L1440,192L1440,320L1400,320C1360,320,1280,320,1200,320C1120,320,1040,320,960,320C880,320,800,320,720,320C640,320,560,320,480,320C400,320,320,320,240,320C160,320,80,320,40,320L0,320Z"></path></svg>